<svg width="15" height="21" viewBox="0 0 15 21" fill="none" xmlns="http://www.w3.org/2000/svg">
<path d="M7.50065 20.9166C5.66037 20.9166 4.15864 20.6258 2.99544 20.0443C1.83225 19.4627 1.25065 18.7118 1.25065 17.7916C1.25065 17.375 1.37652 16.9887 1.62826 16.6328C1.87999 16.2769 2.23155 15.9687 2.68294 15.7083L4.32357 17.2448C4.16732 17.3142 3.99805 17.3923 3.81576 17.4791C3.63346 17.566 3.49023 17.6701 3.38607 17.7916C3.61176 18.0694 4.1326 18.3125 4.94857 18.5208C5.76454 18.7291 6.61523 18.8333 7.50065 18.8333C8.38607 18.8333 9.2411 18.7291 10.0658 18.5208C10.8904 18.3125 11.4156 18.0694 11.6413 17.7916C11.5197 17.6528 11.3635 17.5399 11.1725 17.4531C10.9816 17.3663 10.7993 17.2882 10.6257 17.2187L12.2402 15.6562C12.7263 15.934 13.0996 16.2508 13.36 16.6068C13.6204 16.9627 13.7507 17.3576 13.7507 17.7916C13.7507 18.7118 13.1691 19.4627 12.0059 20.0443C10.8427 20.6258 9.34093 20.9166 7.50065 20.9166ZM7.52669 15.1875C9.24544 13.9201 10.5388 12.6484 11.4069 11.3724C12.275 10.0963 12.709 8.81595 12.709 7.53123C12.709 5.7604 12.1447 4.42359 11.0163 3.52081C9.8878 2.61804 8.71593 2.16665 7.50065 2.16665C6.28537 2.16665 5.1135 2.61804 3.98503 3.52081C2.85655 4.42359 2.29232 5.7604 2.29232 7.53123C2.29232 8.69442 2.71766 9.90536 3.56836 11.164C4.41905 12.4227 5.7385 13.7639 7.52669 15.1875ZM7.50065 17.7916C5.05273 15.9861 3.22548 14.2326 2.01888 12.5312C0.812283 10.8298 0.208984 9.16317 0.208984 7.53123C0.208984 6.29859 0.430339 5.21786 0.873047 4.28904C1.31576 3.36022 1.88433 2.58331 2.57878 1.95831C3.27322 1.33331 4.05447 0.864563 4.92253 0.552063C5.79058 0.239563 6.64996 0.083313 7.50065 0.083313C8.35135 0.083313 9.21072 0.239563 10.0788 0.552063C10.9468 0.864563 11.7281 1.33331 12.4225 1.95831C13.117 2.58331 13.6855 3.36022 14.1283 4.28904C14.571 5.21786 14.7923 6.29859 14.7923 7.53123C14.7923 9.16317 14.189 10.8298 12.9824 12.5312C11.7758 14.2326 9.94857 15.9861 7.50065 17.7916ZM7.50065 9.45831C8.07357 9.45831 8.56402 9.25432 8.972 8.84633C9.37999 8.43835 9.58398 7.9479 9.58398 7.37498C9.58398 6.80206 9.37999 6.31161 8.972 5.90363C8.56402 5.49564 8.07357 5.29165 7.50065 5.29165C6.92773 5.29165 6.43728 5.49564 6.0293 5.90363C5.62131 6.31161 5.41732 6.80206 5.41732 7.37498C5.41732 7.9479 5.62131 8.43835 6.0293 8.84633C6.43728 9.25432 6.92773 9.45831 7.50065 9.45831Z" fill="#F3E902"/>
</svg>
