<svg width="145" height="28" viewBox="0 0 145 28" fill="none" xmlns="http://www.w3.org/2000/svg">
<path d="M39.6501 7.82748C41.4098 6.15638 43.5371 5.32571 46.043 5.32571C47.4352 5.32571 48.7383 5.63843 49.9189 6.27365C51.1106 6.90886 51.9905 7.71998 52.5585 8.69723L52.8035 5.56025H56.5458V22.1345H52.8035L52.5585 19.0268C51.9905 19.9943 51.0995 20.7858 49.9189 21.4113C48.7272 22.0367 47.4352 22.3494 46.043 22.3494C43.5482 22.3494 41.4098 21.5188 39.6389 19.8477C37.8681 18.1766 36.9771 16.183 36.9771 13.8474C36.9771 11.5117 37.8681 9.48881 39.6612 7.81771L39.6501 7.82748ZM42.7797 17.3459C43.8823 18.3329 45.2077 18.8216 46.767 18.8216C48.3262 18.8216 49.685 18.3329 50.7988 17.3557C51.9125 16.3784 52.4694 15.2155 52.4694 13.8474C52.4694 12.4792 51.9125 11.2772 50.7988 10.3097C49.685 9.33245 48.3374 8.84382 46.767 8.84382C45.1966 8.84382 43.8823 9.33245 42.7797 10.3097C41.6771 11.287 41.1314 12.4597 41.1314 13.8474C41.1314 15.2351 41.6771 16.3784 42.7797 17.3459Z" fill="white"/>
<path d="M60.6663 5.56995H64.7537V14.0036C64.7537 15.6063 65.177 16.8181 66.0234 17.6292C66.8699 18.4404 67.9502 18.8508 69.2533 18.8508C70.5564 18.8508 71.6368 18.4404 72.4832 17.6292C73.3297 16.8181 73.7529 15.6063 73.7529 14.0036V5.56995H77.8404V22.1441H74.0982L73.8531 19.4665C73.3074 20.3265 72.5389 21.0301 71.5699 21.5773C70.601 22.1246 69.4872 22.3885 68.2509 22.3885C65.9343 22.3885 64.0966 21.6946 62.7267 20.2971C61.3568 18.8997 60.6663 16.8083 60.6663 14.0134V5.56995Z" fill="white"/>
<path d="M82.3071 5.56989H86.0494L86.3278 8.10097C87.4972 6.35169 89.3683 5.48193 91.9634 5.48193H92.1305C92.6985 5.48193 93.2331 5.51125 93.712 5.56989L92.8878 9.00004C92.7319 8.9805 92.5091 8.97072 92.2307 8.97072C90.5378 8.97072 89.1456 9.43003 88.043 10.3389C86.9404 11.2575 86.3946 12.7527 86.3946 14.844V22.1343H82.3071V5.56989Z" fill="white"/>
<path d="M96.3845 5.56995H100.472V14.0036C100.472 15.6063 100.895 16.8181 101.742 17.6292C102.588 18.4404 103.668 18.8508 104.972 18.8508C106.275 18.8508 107.355 18.4404 108.201 17.6292C109.048 16.8181 109.471 15.6063 109.471 14.0036V5.56995H113.559V22.1441H109.816L109.571 19.4665C109.026 20.3265 108.257 21.0301 107.288 21.5773C106.319 22.1246 105.205 22.3885 103.969 22.3885C101.653 22.3885 99.8149 21.6946 98.445 20.2971C97.075 18.8997 96.3845 16.8083 96.3845 14.0134V5.56995Z" fill="white"/>
<path d="M118.014 22.1442V5.56997H121.756L122.001 8.10106C122.48 7.24107 123.182 6.557 124.095 6.06837C125.008 5.57975 125.988 5.32566 127.013 5.32566C128.36 5.32566 129.519 5.61884 130.477 6.19541C131.434 6.78177 132.147 7.5538 132.604 8.5115C133.061 7.56357 133.762 6.80131 134.698 6.20519C135.633 5.60906 136.714 5.31589 137.928 5.31589C140.099 5.31589 141.826 5.97065 143.095 7.28994C144.365 8.60923 145 10.6419 145 13.388V22.1246H140.913V13.388C140.913 11.8244 140.567 10.6712 139.888 9.93829C139.197 9.20535 138.317 8.84377 137.248 8.84377C136.179 8.84377 135.31 9.21512 134.609 9.93829C133.896 10.6712 133.539 11.8244 133.539 13.388V22.1246H129.452V13.388C129.452 11.8048 129.107 10.6419 128.416 9.91875C127.726 9.19558 126.846 8.834 125.777 8.834C124.707 8.834 123.85 9.24444 123.148 10.0556C122.446 10.8667 122.101 12.0785 122.101 13.6909V22.1246H118.014V22.1442Z" fill="white"/>
<path d="M26.875 -0.00598145H13.3539C11.338 -0.00598145 9.68969 1.43058 9.68969 3.20918V8.81861H3.66426C1.64836 8.81861 0 10.2552 0 12.0338V24.6501C0 26.4189 1.63722 27.8653 3.66426 27.8653H17.5083C19.5242 27.8653 21.1725 26.4287 21.1725 24.6501V19.4316H26.8861C28.902 19.4316 30.5504 17.995 30.5504 16.2164V3.20918C30.5504 1.44035 28.9131 -0.00598145 26.8861 -0.00598145H26.875ZM2.92918 24.6403V12.024C2.92918 11.6722 3.25217 11.379 3.66426 11.379H9.70082V25.2755H3.66426C3.26331 25.2755 2.92918 24.9921 2.92918 24.6305V24.6403ZM17.4971 25.2853H12.6189V3.20918C12.6189 2.85737 12.9419 2.56419 13.3539 2.56419H18.2322V24.6403C18.2322 24.9921 17.9092 25.2853 17.4971 25.2853ZM27.61 16.2164C27.61 16.5682 27.287 16.8614 26.875 16.8614H21.1614V2.56419H26.875C27.2759 2.56419 27.61 2.84759 27.61 3.20918V16.2164Z" fill="#F3E902"/>
</svg>
